<?xml version="1.0" standalone="no"?>
<!DOCTYPE svg PUBLIC "-//W3C//DTD SVG 20010904//EN"
 "http://www.w3.org/TR/2001/REC-SVG-20010904/DTD/svg10.dtd">
<svg version="1.0" xmlns="http://www.w3.org/2000/svg"
 width="1024.000000pt" height="768.000000pt" viewBox="0 0 1024.000000 768.000000"
 preserveAspectRatio="xMidYMid meet">

<g transform="translate(0.000000,768.000000) scale(0.100000,-0.100000)"
fill="#000000" stroke="none">
<path d="M0 7452 l0 -228 37 -10 c31 -7 38 -15 46 -43 13 -52 -23 -226 -59
-282 l-24 -39 0 -306 c0 -205 5 -346 15 -427 8 -67 16 -142 19 -167 7 -72 27
-152 47 -190 11 -19 19 -45 19 -57 0 -12 4 -24 9 -27 19 -12 19 -61 0 -101
-14 -29 -31 -46 -62 -60 l-42 -20 -3 -274 -2 -273 77 6 c43 4 98 11 123 16
155 31 201 44 211 57 9 10 12 69 12 198 -1 160 -3 186 -18 201 -38 38 -50 127
-20 150 8 6 15 16 15 22 0 13 58 62 73 62 7 0 18 4 25 8 15 10 39 103 40 160
1 30 10 56 31 88 17 25 38 58 46 75 9 16 21 29 29 29 15 0 82 90 112 149 5 9
-2 22 -17 34 -15 13 -20 21 -12 24 10 3 9 10 -2 26 -8 13 -15 36 -16 52 -3 37
10 95 20 95 14 0 40 82 49 154 8 62 7 70 -11 87 -12 10 -26 19 -32 19 -7 0
-25 12 -40 26 -15 14 -34 23 -41 20 -8 -3 -14 0 -14 8 0 7 -11 23 -25 36 -14
13 -25 28 -25 34 -1 13 -72 65 -113 83 -16 7 -34 27 -43 48 -8 19 -19 35 -24
35 -6 0 -10 16 -10 36 0 19 -5 44 -10 54 -15 29 16 78 70 111 22 14 51 15 220
7 107 -5 211 -11 230 -13 78 -7 129 -14 220 -29 68 -11 193 -17 425 -20 182
-3 341 -8 356 -13 14 -4 38 -18 53 -30 25 -20 27 -26 21 -68 -4 -25 -16 -56
-27 -70 -14 -18 -21 -47 -25 -103 -3 -42 -9 -81 -13 -87 -4 -5 -11 -50 -14
-100 -9 -119 -15 -145 -32 -145 -10 0 -14 -12 -14 -42 0 -25 -7 -49 -17 -60
-10 -11 -27 -29 -39 -41 -12 -12 -24 -32 -28 -44 -4 -13 -12 -23 -18 -23 -6 0
-8 -10 -4 -24 3 -14 1 -37 -6 -51 -8 -18 -9 -29 -1 -33 5 -4 13 -18 16 -32 11
-50 16 -66 32 -103 10 -24 18 -80 21 -150 3 -61 6 -113 6 -116 3 -15 -15 -81
-22 -81 -4 0 -11 -17 -14 -37 -17 -98 -23 -126 -25 -108 -2 12 -5 15 -8 7 -3
-7 -16 -17 -29 -22 -13 -5 -26 -21 -30 -37 -8 -30 -64 -109 -97 -135 -27 -22
-86 -14 -105 14 -13 18 -47 25 -54 10 -1 -4 -25 -26 -53 -48 -47 -39 -61 -45
-132 -59 -66 -13 -109 -30 -128 -49 -21 -22 -65 -84 -65 -92 0 -14 -41 -92
-54 -104 -9 -7 -26 -10 -38 -7 -87 21 -113 29 -123 37 -20 17 -101 40 -141 40
-54 0 -90 -35 -79 -77 4 -15 10 -64 12 -109 3 -61 1 -85 -10 -95 -8 -8 -26
-33 -40 -56 l-27 -42 22 -12 c13 -7 43 -9 80 -5 32 3 58 2 58 -2 0 -4 14 -23
30 -42 18 -22 30 -46 30 -65 1 -59 47 -85 115 -66 88 24 184 -37 248 -159 37
-69 50 -77 124 -79 53 -1 93 -16 110 -41 8 -11 20 -20 27 -20 9 0 15 -27 20
-92 8 -101 8 -105 3 -193 -2 -33 -4 -77 -5 -97 -1 -20 -9 -44 -18 -52 -8 -9
-22 -36 -30 -61 -11 -31 -22 -45 -34 -45 -10 0 -23 -6 -30 -14 -6 -8 -18 -12
-26 -9 -8 3 -22 -1 -31 -8 -9 -8 -19 -13 -22 -11 -3 2 -7 -1 -9 -7 -5 -15 40
-31 69 -25 13 2 18 2 11 -2 -6 -3 -30 -23 -51 -44 -61 -61 -114 -83 -180 -77
-56 5 -141 35 -141 49 0 5 -11 8 -25 8 -14 0 -25 6 -26 13 0 7 -3 5 -7 -4 -13
-30 -81 -80 -116 -86 -20 -3 -36 -11 -36 -17 0 -6 -9 4 -20 22 -11 18 -26 35
-34 38 -36 14 41 115 98 130 29 7 66 -11 66 -32 0 -8 4 -13 9 -9 5 3 21 0 36
-7 21 -10 29 -9 43 5 15 16 15 19 -1 50 -13 23 -32 38 -70 53 -59 24 -77 49
-77 109 0 47 15 64 83 90 40 15 44 19 32 32 -17 17 -20 37 -4 28 13 -8 49 23
49 42 0 8 -15 20 -33 28 -41 17 -67 69 -67 136 0 30 -8 65 -20 89 -11 22 -20
46 -20 55 0 8 -4 15 -9 15 -5 0 -12 9 -16 19 -3 11 -15 23 -26 26 -10 4 -19
12 -19 20 0 32 -115 27 -159 -7 -13 -10 -29 -18 -36 -18 -7 0 -24 -9 -38 -20
-57 -45 -110 -7 -120 86 -5 48 3 164 13 209 5 22 -1 35 -22 47 -33 17 -180 38
-275 38 l-83 0 0 -875 c0 -786 2 -875 16 -875 8 0 12 -4 9 -10 -3 -6 2 -10 13
-10 23 0 62 -36 62 -57 0 -30 -40 -99 -70 -121 l-30 -23 0 -184 0 -184 58 -12
c37 -7 94 -9 164 -5 70 5 108 3 113 -4 3 -5 15 -10 25 -10 11 0 24 -9 29 -19
13 -23 0 -36 -49 -46 -19 -4 -46 -13 -60 -20 -14 -7 -38 -11 -53 -8 -15 3 -34
0 -42 -7 -10 -9 -19 -9 -28 -2 -21 17 -86 31 -122 25 l-35 -6 0 -297 0 -298
36 -7 c22 -4 39 -2 43 4 4 5 36 10 71 10 36 0 76 3 90 5 78 13 139 16 145 7 3
-7 -3 -12 -17 -13 -13 -1 -30 -2 -38 -3 -8 0 -20 -3 -25 -7 -6 -3 -50 -15
-100 -27 -49 -12 -106 -26 -126 -31 -20 -6 -46 -10 -58 -10 l-21 0 0 -800 0
-800 480 0 480 0 1 38 c1 20 1 40 1 43 -1 4 8 5 19 2 11 -3 19 -2 18 3 -4 22
3 23 35 10 26 -11 36 -11 40 -3 3 9 7 8 14 -2 6 -8 17 -11 26 -8 15 6 74 -19
87 -36 3 -5 19 -5 34 -1 19 5 26 3 21 -4 -3 -6 3 -12 16 -15 l23 -4 -25 -10
c-19 -8 76 -12 369 -12 347 -1 393 0 387 14 -14 36 -76 263 -76 277 0 20 32
78 43 78 4 0 7 5 7 11 0 6 11 25 25 43 14 18 25 41 25 52 -1 18 -2 17 -19 -4
-11 -12 -23 -22 -28 -22 -8 0 -86 -75 -205 -200 -129 -135 -168 -154 -351
-168 -186 -15 -273 4 -482 102 -99 47 -184 108 -196 142 -2 6 -31 31 -65 55
-52 37 -164 134 -251 216 -12 12 -20 28 -17 36 3 8 -2 32 -11 53 -17 41 -20
29 61 222 8 18 14 39 14 46 0 26 82 270 137 411 64 160 104 274 128 360 9 33
22 74 30 90 7 17 24 55 37 85 36 80 42 109 25 129 -30 33 -30 59 -1 86 19 18
30 22 39 15 9 -7 17 -4 27 12 22 34 48 105 48 130 0 12 6 29 13 37 31 39 114
244 147 365 21 75 21 78 3 92 -10 7 -31 18 -48 23 l-30 9 34 1 34 1 -38 26
c-42 28 -65 26 -65 -8 -1 -56 -54 -78 -187 -78 -116 0 -161 11 -192 46 -19 22
-21 30 -12 56 6 17 11 41 11 54 0 13 13 33 32 49 32 27 34 27 154 23 92 -3
127 -8 147 -21 33 -21 39 -21 35 -1 -6 32 -76 48 -220 49 -75 1 -135 -2 -132
-7 7 -12 -8 -9 -35 6 l-24 13 22 22 c11 11 27 21 34 21 8 0 7 -4 -3 -10 -13
-8 -13 -10 2 -10 9 0 24 -3 34 -7 11 -4 15 -3 11 4 -4 7 10 13 38 17 25 4 51
14 59 22 9 8 34 14 60 14 31 0 52 6 64 18 11 11 40 22 67 25 26 4 53 11 59 17
7 5 34 14 61 20 28 6 95 25 150 42 68 21 100 27 103 19 7 -22 59 28 118 116
73 110 109 150 193 216 36 28 73 58 81 66 8 8 39 30 70 49 111 71 272 197 256
200 -14 3 -13 7 7 22 26 20 68 102 87 170 18 62 122 160 170 160 11 0 25 14
37 37 13 27 27 39 50 45 41 11 48 34 29 99 -21 71 -20 127 4 175 27 54 60 82
118 99 44 13 54 13 93 0 24 -9 53 -24 64 -34 25 -23 85 -36 85 -18 0 6 16 20
35 29 29 15 35 15 45 2 7 -8 20 -14 30 -14 11 0 20 -10 24 -24 7 -30 -2 -56
-19 -56 -7 0 -18 -7 -25 -16 -7 -8 -23 -14 -34 -13 -42 3 -51 -2 -70 -34 -27
-47 -45 -132 -46 -214 0 -39 -5 -84 -12 -100 -6 -15 -10 -32 -9 -37 1 -4 -5
-19 -14 -32 -8 -13 -15 -25 -15 -28 0 -6 89 18 165 45 36 13 65 30 65 37 0 7
-5 33 -11 57 -16 64 -6 93 39 112 69 29 212 -3 197 -44 -2 -7 0 -13 6 -13 5 0
14 -10 19 -22 5 -13 9 -17 9 -10 1 7 6 10 11 7 6 -4 83 14 173 38 160 44 264
67 304 67 11 0 28 10 39 22 19 21 19 21 -6 14 -65 -19 -121 -28 -137 -21 -14
7 -11 10 17 15 l35 7 -32 2 c-25 1 -32 6 -35 24 -2 14 -11 23 -25 25 -25 4
-32 32 -8 32 20 0 20 69 0 96 -8 10 -15 29 -15 42 0 12 -4 22 -10 22 -5 0 -10
18 -10 40 0 22 -4 40 -9 40 -5 0 -11 10 -14 21 -4 15 -11 20 -21 16 -15 -6
-22 15 -17 46 1 5 -8 20 -19 34 -11 14 -20 32 -20 39 0 8 -9 22 -20 31 -11 10
-20 23 -20 30 0 7 -5 13 -10 13 -6 0 -15 12 -20 26 -6 14 -19 28 -30 31 -11 3
-20 12 -20 19 0 8 -6 14 -14 14 -8 0 -16 10 -18 23 -2 14 -10 22 -23 22 -11 0
-33 10 -48 21 -20 17 -27 31 -27 58 0 34 -2 36 -32 36 -29 0 -30 1 -15 18 10
10 17 33 17 50 0 31 2 32 40 32 38 0 40 2 40 30 0 28 2 30 39 30 21 0 55 7 74
15 20 8 50 15 66 15 21 0 34 7 42 22 9 16 9 23 0 26 -6 2 -11 10 -11 18 0 17
3 16 -135 18 -86 2 -119 6 -150 21 l-40 20 45 6 c25 3 36 7 26 7 -15 2 -17 5
-9 13 13 13 223 28 230 16 3 -5 14 -7 24 -4 10 3 22 1 25 -4 3 -6 15 -7 26 -3
37 11 92 13 104 3 19 -16 23 2 12 61 -15 80 -5 225 19 280 23 52 40 69 74 72
36 4 30 -21 -11 -41 -55 -25 -69 -66 -70 -197 0 -73 5 -126 15 -153 8 -23 12
-48 8 -57 -6 -16 4 -55 39 -153 10 -29 22 -100 27 -158 7 -95 10 -106 36 -133
16 -17 35 -30 42 -30 7 0 13 -4 13 -9 0 -5 8 -8 17 -7 13 1 22 -23 44 -122 15
-67 39 -151 52 -185 31 -80 33 -85 62 -132 14 -22 29 -49 34 -60 5 -12 16 -27
25 -34 9 -7 16 -17 16 -22 0 -8 6 -17 53 -71 9 -12 17 -22 17 -23 0 -1 -11
-22 -24 -46 -47 -83 -69 -158 -62 -206 15 -115 145 -255 329 -359 138 -78 178
-110 219 -173 26 -43 41 -34 18 10 -8 15 -7 19 4 19 8 0 16 6 19 13 3 9 8 9
21 -2 14 -12 21 -12 44 -1 25 13 26 14 5 17 -13 3 -24 14 -27 29 -8 31 0 45
20 37 12 -4 15 0 12 18 -2 18 -14 27 -50 39 -57 18 -64 35 -11 27 30 -5 40 -2
59 18 13 14 28 25 33 25 6 0 7 8 4 18 -6 15 -5 15 10 3 9 -7 17 -22 17 -32 0
-16 27 -39 45 -39 4 0 4 13 0 30 -4 18 -3 30 4 30 6 0 8 -6 5 -14 -8 -20 30
-38 69 -34 27 2 32 7 30 26 -2 13 1 21 6 18 5 -4 11 -1 13 6 2 6 18 11 36 11
35 0 48 19 26 38 -11 9 -18 9 -22 2 -4 -6 -16 -13 -27 -15 -11 -1 -23 -10 -27
-18 -5 -12 -8 -10 -14 8 -5 18 -9 20 -20 11 -11 -9 -14 -7 -14 10 0 11 -4 21
-10 21 -5 0 -10 -8 -10 -19 0 -13 -9 -20 -30 -23 -25 -4 -30 -1 -30 15 0 17
-2 18 -16 6 -9 -7 -36 -13 -60 -14 -38 0 -44 3 -47 25 -4 24 -4 24 -6 -3 0
-16 -5 -25 -11 -22 -5 3 -10 -1 -10 -10 0 -11 7 -14 25 -11 14 3 25 0 25 -5 0
-5 -10 -10 -22 -10 -17 -1 -19 -2 -5 -6 19 -5 23 -23 5 -23 -17 0 -40 15 -40
26 1 5 -7 8 -16 6 -11 -2 -13 0 -5 5 6 5 13 20 15 33 7 51 32 64 63 34 12 -12
19 -13 29 -5 10 8 16 9 21 1 4 -7 12 -7 26 1 15 8 24 7 35 -2 9 -8 18 -9 22
-3 4 5 13 9 20 9 6 0 11 5 10 10 -2 6 -24 9 -50 9 -29 -1 -49 3 -52 11 -3 9
12 13 57 14 129 2 149 0 165 -18 11 -14 12 -13 7 6 -4 16 -1 22 14 25 16 2 18
7 11 18 -9 13 -11 13 -19 0 -16 -24 -21 -6 -7 22 8 15 11 29 8 32 -3 4 -11 -7
-18 -24 -7 -16 -20 -30 -29 -30 -21 0 -31 30 -14 41 9 5 10 9 2 9 -6 0 -14 10
-16 23 l-4 22 -2 -22 c0 -13 -8 -23 -16 -23 -9 0 -12 6 -9 15 5 11 2 13 -10 9
-9 -3 -13 -10 -10 -15 3 -5 1 -9 -3 -9 -5 0 -14 9 -21 20 -7 12 -18 18 -24 14
-7 -5 -5 -11 7 -21 11 -7 15 -13 10 -13 -5 0 -16 7 -26 16 -17 15 -19 15 -34
0 -16 -15 -35 -21 -35 -11 0 3 13 13 29 23 l30 18 -24 30 -24 29 -1 -27 c0
-31 -18 -47 -31 -27 -6 11 -13 8 -33 -11 l-26 -23 0 26 c0 15 -9 36 -19 46
-18 18 -20 18 -24 3 -3 -11 -5 -7 -6 9 0 14 -6 30 -12 36 -8 8 -8 13 0 17 19
12 13 38 -8 31 -14 -4 -20 0 -25 17 -9 35 -7 68 4 68 6 0 10 -5 10 -11 0 -6 6
-9 12 -7 7 3 13 13 13 24 0 13 6 18 18 16 12 -2 21 4 24 17 5 20 38 29 45 14
5 -12 68 -43 68 -34 0 5 16 5 36 1 36 -8 36 -8 30 20 -4 25 -2 29 17 27 12 0
25 -6 29 -12 5 -7 8 -6 8 1 0 19 -27 36 -62 38 -45 4 -48 5 -48 14 0 4 15 6
33 4 28 -3 32 -1 33 22 1 14 -2 26 -7 26 -5 0 -9 -7 -9 -15 0 -8 -4 -15 -10
-15 -5 0 -10 7 -10 15 0 8 -9 15 -19 15 -13 0 -21 8 -23 22 -2 15 -13 25 -35
32 -18 5 -33 13 -33 17 0 5 -9 9 -19 9 -11 0 -29 13 -41 30 l-21 29 45 -2 c24
-1 42 -5 39 -9 -2 -5 3 -8 11 -8 8 0 17 4 20 9 3 5 43 9 88 9 95 0 168 19 88
23 -25 1 -68 1 -96 0 -56 -3 -94 11 -94 34 0 18 -17 20 -22 3 -6 -18 -59 0
-65 23 -4 14 -11 18 -22 13 -36 -14 -54 -17 -47 -6 3 6 2 13 -4 17 -16 10 -12
71 6 86 14 11 19 10 35 -10 11 -13 19 -31 19 -40 0 -9 8 -1 16 17 9 17 21 32
26 32 21 0 48 -22 48 -39 0 -31 13 -32 32 -1 15 26 22 29 45 24 42 -10 63 -23
63 -39 0 -21 17 -18 30 5 20 38 100 34 100 -5 0 -9 9 -5 25 11 21 21 29 23 40
14 8 -7 15 -22 15 -34 0 -19 2 -19 23 8 20 25 24 26 36 12 7 -9 20 -16 27 -16
21 0 17 -41 -5 -47 -11 -3 -21 -13 -24 -23 -3 -13 -11 -17 -26 -13 -12 3 -21
10 -21 16 0 5 -9 2 -20 -8 -23 -21 -17 -38 11 -30 11 4 36 9 57 11 20 3 44 12
53 20 10 9 23 13 29 9 6 -4 18 1 25 11 8 11 15 15 15 11 0 -4 17 4 37 18 42
28 78 34 70 11 -4 -11 -1 -13 10 -9 10 4 22 -1 30 -13 13 -18 15 -18 27 -1 7
9 21 17 32 17 17 0 17 -1 -2 -16 -13 -11 -15 -17 -7 -20 10 -4 10 -11 -2 -27
-15 -22 -20 -78 -8 -90 6 -7 27 23 39 56 3 9 10 17 14 17 5 0 10 10 12 23 2
12 9 22 16 22 17 0 32 25 32 54 0 13 10 32 22 43 19 16 20 21 8 28 -12 8 -13
13 -2 30 10 17 10 24 -4 45 -9 14 -20 22 -25 19 -9 -5 -13 9 -10 34 1 7 -5 15
-14 18 -8 3 -15 12 -15 20 0 8 -5 14 -11 14 -6 0 -9 6 -6 14 3 7 0 19 -6 26
-9 10 -8 12 6 7 23 -8 22 -3 -8 29 -19 21 -22 29 -13 36 10 6 8 8 -4 8 -22 0
-68 49 -68 72 0 9 8 19 18 21 10 3 6 5 -11 6 -28 1 -38 7 -84 49 -14 13 -32
21 -39 18 -8 -3 -17 1 -20 9 -4 8 -11 15 -18 15 -6 0 -23 7 -38 14 -35 18 -36
9 -3 -26 15 -16 26 -41 27 -63 2 -25 7 -34 17 -30 11 4 12 3 1 -10 -10 -13 -9
-15 7 -15 21 0 60 -36 50 -46 -3 -3 5 -16 18 -28 19 -17 22 -25 13 -34 -9 -9
-9 -12 1 -12 7 0 10 -4 6 -9 -3 -5 7 -19 22 -31 l28 -22 -32 6 c-31 7 -54 -6
-33 -19 8 -5 8 -11 1 -19 -8 -9 -6 -12 9 -11 11 1 23 4 26 8 4 4 12 7 18 7 6
0 1 -7 -11 -15 -19 -13 -21 -20 -13 -41 6 -14 7 -30 4 -36 -4 -6 0 -14 7 -19
10 -6 11 -11 3 -16 -6 -5 -13 -15 -16 -24 -5 -13 -15 -15 -64 -8 -32 4 -60 6
-63 4 -2 -3 -10 0 -18 7 -11 9 -13 8 -11 -2 4 -18 -24 -20 -175 -13 -88 4
-120 10 -124 20 -9 23 6 28 22 7 12 -16 14 -17 15 -2 0 9 2 23 6 31 4 11 -9
15 -59 19 -73 6 -137 33 -137 57 0 14 2 14 10 1 7 -12 12 -12 22 -2 15 15 48
15 70 -1 18 -15 88 -10 88 5 0 5 10 8 21 6 13 -2 26 5 33 17 6 11 16 23 21 27
6 4 -2 8 -17 8 -16 0 -28 5 -28 10 0 6 7 10 15 10 8 0 15 5 15 11 0 6 -7 9
-15 5 -8 -3 -15 -1 -15 4 0 6 5 10 11 10 5 0 7 4 4 10 -9 15 8 12 33 -5 20
-14 21 -14 16 0 -6 15 4 19 38 16 9 -1 34 5 55 15 34 14 36 17 18 24 -44 17
-114 3 -168 -34 -57 -39 -117 -48 -152 -22 -18 13 -15 14 26 9 36 -4 46 -2 46
10 0 9 -6 13 -15 9 -11 -4 -14 -1 -9 11 3 9 1 19 -5 23 -7 4 -8 3 -4 -4 4 -7
2 -12 -4 -12 -6 0 -18 16 -26 35 -8 19 -21 35 -29 35 -17 0 -20 16 -4 25 6 4
8 13 5 20 -2 7 -2 16 2 19 12 13 9 47 -5 42 -20 -8 -22 72 -2 85 6 3 8 16 5
27 -4 11 -2 23 4 27 7 4 11 61 10 158 0 84 0 164 0 180 1 17 6 27 16 27 8 0
13 4 10 9 -3 5 1 11 9 15 17 6 20 42 5 51 -20 13 -9 33 23 40 32 7 32 7 7 15
-14 4 -20 8 -13 9 28 2 60 61 33 61 -5 0 -10 -7 -10 -15 0 -8 -4 -15 -10 -15
-6 0 -6 9 1 26 5 15 7 29 4 32 -2 3 0 11 6 18 7 9 5 14 -10 19 -12 3 -21 13
-21 21 0 27 -20 14 -27 -17 -5 -26 -9 -30 -29 -25 -24 6 -42 -8 -24 -19 5 -3
10 -11 10 -16 0 -13 -20 9 -38 40 -10 17 -10 26 -2 36 16 19 -5 28 -32 14 -13
-6 -20 -8 -15 -4 4 5 -2 19 -14 31 -16 17 -29 22 -48 18 -14 -3 -39 0 -56 7
-16 7 -37 13 -45 14 -8 0 -14 6 -13 11 1 6 -6 10 -15 10 -59 0 -71 4 -65 21 4
11 3 14 -5 9 -6 -4 -20 -1 -31 6 -28 17 -8 40 28 31 24 -6 25 -6 8 11 -19 20
-22 32 -7 41 12 7 14 65 2 65 -4 0 -14 -6 -21 -12 -10 -11 -11 -10 -6 4 5 11
27 20 73 27 37 6 92 15 122 20 52 8 49 9 -47 10 -101 1 -123 9 -84 31 13 6 28
7 45 0 24 -9 25 -8 19 23 -3 18 -11 36 -17 40 -7 5 -3 6 8 3 27 -9 87 4 79 17
-7 12 14 1 39 -20 12 -11 21 -12 35 -4 16 9 14 10 -12 11 -31 0 -25 14 10 23
15 3 12 5 -10 7 -21 2 -13 5 25 10 67 9 220 4 318 -11 41 -6 76 -9 78 -6 10
10 -158 30 -292 34 -307 11 -526 -43 -737 -185 -86 -57 -188 -165 -227 -240
l-29 -57 4 70 c9 145 9 175 -1 175 -5 1 -12 -9 -15 -22 l-5 -23 -15 23 c-17
27 -29 28 -29 2 0 -13 -5 -18 -15 -14 -8 4 -15 12 -15 20 0 11 -26 14 -130 14
-97 0 -130 3 -130 13 0 6 23 35 50 64 28 29 50 61 50 71 0 10 13 34 30 52 32
36 39 85 21 163 -7 29 -6 37 5 37 18 0 19 77 2 82 -8 3 0 16 21 35 18 17 30
36 27 42 -4 6 -1 11 8 11 23 0 31 -22 13 -35 -19 -13 -23 -35 -7 -35 6 0 10 7
10 15 0 19 19 19 43 0 14 -10 17 -20 11 -37 -6 -20 -5 -21 8 -10 13 10 16 9
21 -8 5 -19 27 -29 27 -11 0 14 -61 86 -73 86 -6 0 -14 9 -17 20 -3 11 -17 36
-32 55 -25 34 -26 40 -30 197 -2 112 -7 166 -15 175 -10 9 -13 9 -13 -5 0 -15
-11 -17 -77 -16 -43 0 -89 -4 -103 -9 -14 -5 -60 -13 -103 -17 -67 -6 -77 -5
-77 9 0 14 -18 16 -145 16 -90 0 -145 -4 -145 -10 0 -5 -11 -10 -24 -10 -14 0
-28 5 -31 10 -4 6 -66 10 -152 10 -128 0 -144 -2 -133 -15 7 -9 8 -15 2 -15
-5 0 -12 6 -15 13 -6 17 -98 21 -108 5 -5 -7 -11 -9 -16 -5 -4 5 -1 12 7 18
13 8 10 13 -12 34 -36 31 -35 41 5 49 17 3 43 8 57 11 14 2 86 9 160 15 74 6
209 17 300 26 91 8 219 20 285 25 66 6 122 14 125 19 3 4 51 9 108 12 83 3
102 1 102 -10 0 -12 3 -12 15 -2 12 10 75 189 75 213 0 4 -823 7 -1830 7
l-1830 0 0 -228z m3570 -478 c0 -8 -4 -14 -10 -14 -5 0 -10 9 -10 21 0 11 5
17 10 14 6 -3 10 -13 10 -21z m35 -54 c4 -6 -12 -10 -39 -10 -25 0 -46 5 -46
10 0 6 18 10 39 10 22 0 43 -4 46 -10z m-985 -300 c0 -5 -9 -10 -20 -10 -11 0
-20 5 -20 10 0 6 9 10 20 10 11 0 20 -4 20 -10z m1838 -148 c2 -7 -3 -12 -12
-12 -9 0 -16 7 -16 16 0 17 22 14 28 -4z m10 -538 c4 -5 18 -15 32 -22 14 -7
16 -10 5 -6 -11 3 -57 11 -102 17 -48 6 -80 14 -76 20 7 12 132 4 141 -9z
m-191 -10 c-3 -3 -12 -4 -19 -1 -8 3 -5 6 6 6 11 1 17 -2 13 -5z m193 -45 c22
-12 38 -25 35 -27 -2 -3 -11 1 -20 8 -9 7 -18 10 -22 6 -3 -3 -1 -6 6 -6 7 0
9 -5 5 -12 -4 -6 -3 -9 2 -5 5 3 20 -1 34 -8 l25 -14 -30 3 c-17 2 -62 12
-100 22 -39 9 -78 17 -89 16 -10 0 -25 5 -32 13 -12 11 -10 15 14 24 40 16
126 6 172 -20z m-190 -95 c0 -8 -4 -12 -10 -9 -5 3 -10 10 -10 16 0 5 5 9 10
9 6 0 10 -7 10 -16z m214 -25 c-3 -5 -16 -9 -29 -9 -24 0 -24 1 -8 20 12 14
20 16 30 9 7 -6 10 -15 7 -20z m131 -17 c-3 -3 -11 0 -18 7 -9 10 -8 11 6 5
10 -3 15 -9 12 -12z m-106 -16 c25 -5 48 -12 51 -15 3 -4 12 -6 20 -6 8 0 16
-7 18 -16 2 -12 -5 -16 -29 -17 -18 0 -35 -5 -38 -10 -13 -20 -221 -35 -221
-16 -1 5 11 10 25 12 14 2 25 8 25 14 0 6 -13 8 -33 4 -22 -4 -40 -1 -52 9
-19 14 -19 14 10 16 64 3 96 7 102 13 4 3 -3 6 -15 6 -11 0 -24 5 -27 11 -9
13 98 10 164 -5z m-309 -77 c-36 -8 -74 -3 -66 9 2 4 26 5 53 3 l48 -4 -35 -8z
m297 -15 c-3 -3 -12 -4 -19 -1 -8 3 -5 6 6 6 11 1 17 -2 13 -5z m-397 -16 c31
0 32 0 10 -8 -14 -4 -21 -8 -16 -9 5 -1 3 -8 -4 -16 -8 -9 -8 -15 -2 -15 6 0
12 4 14 10 2 5 30 12 63 14 33 3 47 2 32 -2 -26 -7 -27 -8 -8 -19 13 -8 22 -9
26 -3 4 6 11 8 16 5 5 -4 15 -3 22 2 6 4 51 6 100 4 57 -2 87 1 87 8 0 6 18
10 44 9 25 -1 42 -6 40 -10 -3 -5 2 -11 10 -14 25 -10 18 -25 -8 -18 -20 5
-24 1 -31 -28 -14 -59 -12 -73 13 -76 19 -3 21 -6 11 -18 -6 -8 -20 -14 -30
-14 -11 0 -19 -4 -19 -10 0 -5 -9 -10 -20 -10 -11 0 -20 -7 -20 -15 0 -8 -14
-17 -35 -21 -19 -3 -35 -12 -35 -18 0 -7 -11 -18 -24 -26 -14 -7 -22 -18 -20
-25 4 -9 -3 -11 -21 -8 -20 4 -24 2 -19 -11 7 -17 -24 -49 -38 -40 -5 3 -8 0
-8 -6 0 -7 8 -9 20 -5 11 4 20 2 20 -4 0 -6 -8 -12 -17 -12 -10 -1 -25 -2 -33
-3 -10 -1 -14 -9 -12 -23 3 -24 -21 -33 -33 -13 -3 6 -12 10 -18 9 -9 0 -9 -2
1 -6 11 -4 18 -43 8 -43 -2 0 -11 -3 -19 -6 -12 -4 -14 0 -10 15 7 29 -43 50
-62 25 -6 -9 -18 -14 -26 -11 -10 4 -9 6 4 6 10 1 17 9 17 20 0 17 5 19 37 14
24 -4 34 -3 29 5 -3 5 0 13 6 15 7 3 0 6 -17 7 -16 1 -37 3 -45 4 -10 1 -14
10 -12 29 2 16 -2 35 -9 43 -6 8 -8 14 -4 14 4 0 2 6 -4 14 -9 10 -6 17 13 31
22 17 26 53 5 39 -5 -3 -8 5 -6 17 3 27 -19 37 -26 12 -4 -15 -5 -14 -6 4 0
12 6 26 14 31 14 7 14 11 -1 40 -15 30 -44 44 -44 21 0 -5 -5 -7 -12 -3 -14 9
18 34 44 34 10 0 18 5 18 10 0 6 -7 10 -16 10 -8 0 -12 5 -9 10 3 6 15 10 26
10 10 0 19 5 19 10 0 6 -11 10 -25 10 -14 0 -25 5 -25 11 0 6 9 8 23 3 12 -4
38 -7 57 -6z m-427 -118 c6 -75 -8 -51 -19 32 -4 35 -3 50 4 43 5 -5 12 -39
15 -75z m334 64 c-3 -3 -12 -4 -19 -1 -8 3 -5 6 6 6 11 1 17 -2 13 -5z m-307
-150 c0 -8 -4 -12 -10 -9 -5 3 -10 10 -10 16 0 5 5 9 10 9 6 0 10 -7 10 -16z
m57 -121 c-3 -10 -5 -4 -5 12 0 17 2 24 5 18 2 -7 2 -21 0 -30z m753 -123 c0
-5 -2 -10 -4 -10 -3 0 -8 5 -11 10 -3 6 -1 10 4 10 6 0 11 -4 11 -10z m45 0
c19 -8 19 -9 -2 -9 -12 -1 -25 4 -28 9 -7 12 2 12 30 0z m222 -86 c-3 -3 -12
-4 -19 -1 -8 3 -5 6 6 6 11 1 17 -2 13 -5z m-692 -24 c3 -5 2 -10 -4 -10 -5 0
-13 5 -16 10 -3 6 -2 10 4 10 5 0 13 -4 16 -10z m632 -75 c0 -8 -4 -12 -9 -9
-5 3 -6 10 -3 15 9 13 12 11 12 -6z m558 4 c11 -16 1 -19 -13 -3 -7 8 -8 14
-3 14 5 0 13 -5 16 -11z m-485 -24 c0 -8 -4 -15 -10 -15 -5 0 -7 7 -4 15 4 8
8 15 10 15 2 0 4 -7 4 -15z m-739 -8 c-1 -12 -15 -9 -19 4 -3 6 1 10 8 8 6 -3
11 -8 11 -12z m24 -69 c5 -18 8 -39 8 -45 0 -7 5 -13 13 -13 8 0 14 -8 14 -18
0 -10 9 -37 20 -60 11 -23 23 -57 27 -75 3 -17 9 -36 14 -42 4 -5 10 -27 14
-47 4 -21 11 -38 16 -38 5 0 9 -7 9 -15 0 -20 -23 -19 -42 3 -21 24 -55 99
-68 149 -6 23 -15 45 -20 48 -6 3 -10 16 -10 29 0 12 -6 28 -12 35 -10 11 -10
14 0 18 17 6 15 23 -3 23 -16 0 -20 35 -9 64 10 25 21 19 29 -16z m-105 -40
c0 -19 -2 -20 -10 -8 -13 19 -13 30 0 30 6 0 10 -10 10 -22z m1364 6 c9 -3 16
-16 15 -28 0 -15 -2 -16 -6 -6 -4 8 -13 20 -22 27 -17 13 -12 16 13 7z m-870
-85 c-5 -8 -10 -6 -16 5 -5 9 -6 21 -2 27 5 8 10 6 16 -5 5 -9 6 -21 2 -27z
m-1032 -42 c5 -6 7 -34 5 -60 -5 -54 -33 -89 -95 -118 -45 -21 -109 -14 -133
14 -10 12 -18 25 -19 29 0 8 47 57 55 58 3 0 10 0 16 0 7 0 9 9 5 24 -5 19 2
28 32 50 31 23 44 26 81 22 25 -4 49 -12 53 -19z m1088 -278 c0 -5 -4 -9 -10
-9 -5 0 -10 7 -10 16 0 8 5 12 10 9 6 -3 10 -10 10 -16z m128 -27 c3 -10 -5
-12 -29 -10 -44 5 -52 29 -8 25 18 -1 34 -8 37 -15z m42 -2 c0 -5 -5 -10 -11
-10 -5 0 -7 5 -4 10 3 6 8 10 11 10 2 0 4 -4 4 -10z m-234 -360 c8 0 12 -4 9
-10 -14 -23 -35 -10 -34 23 1 23 3 26 6 10 2 -13 11 -23 19 -23z m108 24 c9
-24 7 -27 -9 -10 -17 17 -19 26 -6 26 5 0 12 -7 15 -16z m-18 -49 c5 -20 9
-23 20 -14 7 6 22 8 34 4 14 -5 20 -2 20 10 0 26 18 8 25 -25 4 -17 11 -30 16
-30 5 0 9 -4 9 -9 0 -6 -24 -8 -55 -5 -44 3 -55 1 -55 -11 0 -8 5 -15 11 -15
8 0 8 -4 1 -12 -5 -7 -12 -24 -15 -38 -4 -22 -4 -21 -6 7 -1 31 -2 32 -43 28
-24 -3 -38 -1 -31 3 14 9 -3 35 -29 45 -19 7 -25 27 -8 27 6 0 10 -4 10 -10 0
-5 9 -10 21 -10 12 0 31 -12 42 -27 l21 -27 7 25 c8 35 0 53 -17 38 -11 -9
-14 -7 -14 10 0 16 -6 21 -25 21 -31 0 -32 12 -2 26 38 19 56 16 63 -11z
m-151 -5 c3 -5 -1 -10 -9 -10 -9 0 -16 5 -16 10 0 6 4 10 9 10 6 0 13 -4 16
-10z m305 -20 c-6 -11 -18 -20 -26 -20 -12 0 -10 5 7 20 30 25 32 25 19 0z
m70 10 c13 -9 13 -11 0 -20 -22 -15 -30 -12 -30 10 0 22 8 25 30 10z m78 -13
c2 -12 -1 -15 -12 -11 -19 7 -22 38 -3 32 6 -3 13 -12 15 -21z m-311 -113 c-3
-3 -12 -4 -19 -1 -8 3 -5 6 6 6 11 1 17 -2 13 -5z m133 -34 c0 -5 -4 -10 -10
-10 -5 0 -10 5 -10 10 0 6 5 10 10 10 6 0 10 -4 10 -10z m144 -16 c5 -12 2
-15 -10 -10 -8 3 -18 6 -20 6 -3 0 -2 5 1 10 9 15 22 12 29 -6z m-4267 -856
c-3 -8 -6 -5 -6 6 -1 11 2 17 5 13 3 -3 4 -12 1 -19z m480 -210 c-3 -8 -6 -5
-6 6 -1 11 2 17 5 13 3 -3 4 -12 1 -19z m-405 -321 c7 -8 24 -19 36 -26 13 -7
27 -23 32 -36 9 -25 29 -29 170 -40 87 -6 101 -13 94 -44 -9 -37 -11 -39 -44
-46 -17 -4 -30 -11 -30 -16 0 -5 -3 -8 -7 -8 -36 6 -61 -3 -67 -23 -7 -22 -7
-22 -16 -3 -8 18 -9 16 -9 -9 -1 -25 -4 -28 -26 -24 -16 4 -25 1 -25 -7 0 -21
-100 -23 -151 -3 -30 12 -37 17 -21 17 24 1 30 17 10 24 -8 2 0 11 17 20 17 9
24 16 18 17 -20 0 -15 18 7 25 37 12 20 25 -32 25 -59 1 -82 13 -91 50 -7 28
21 62 61 74 22 7 31 26 11 26 -5 0 -7 5 -4 10 9 14 51 12 67 -3z m-65 -729
c-3 -8 -6 -5 -6 6 -1 11 2 17 5 13 3 -3 4 -12 1 -19z m-27 -2 c0 -9 -30 -14
-35 -6 -4 6 3 10 14 10 12 0 21 -2 21 -4z m-67 -13 c-7 -2 -19 -2 -25 0 -7 3
-2 5 12 5 14 0 19 -2 13 -5z"/>
<path d="M4480 5579 c0 -5 5 -7 10 -4 6 3 10 8 10 11 0 2 -4 4 -10 4 -5 0 -10
-5 -10 -11z"/>
<path d="M4430 5480 c0 -5 5 -10 10 -10 6 0 10 5 10 10 0 6 -4 10 -10 10 -5 0
-10 -4 -10 -10z"/>
<path d="M4105 5450 c3 -5 8 -10 11 -10 2 0 4 5 4 10 0 6 -5 10 -11 10 -5 0
-7 -4 -4 -10z"/>
<path d="M4081 5324 c0 -11 3 -14 6 -6 3 7 2 16 -1 19 -3 4 -6 -2 -5 -13z"/>
<path d="M4087 5258 c-7 -25 -3 -33 12 -23 13 8 15 45 2 45 -5 0 -11 -10 -14
-22z"/>
<path d="M4525 4040 c-3 -5 -1 -10 4 -10 6 0 11 5 11 10 0 6 -2 10 -4 10 -3 0
-8 -4 -11 -10z"/>
<path d="M4615 3990 c4 -6 11 -8 16 -5 14 9 11 15 -7 15 -8 0 -12 -5 -9 -10z"/>
<path d="M6590 7658 c0 -13 -3 -34 -7 -47 -6 -22 -5 -23 18 -10 30 17 -21 12
344 34 65 4 330 37 334 41 2 2 -152 4 -342 4 l-347 0 0 -22z"/>
<path d="M7448 7673 c6 -2 18 -2 25 0 6 3 1 5 -13 5 -14 0 -19 -2 -12 -5z"/>
<path d="M7965 7644 c18 -45 18 -44 0 -44 -8 0 -15 -4 -15 -9 0 -11 -35 -24
-70 -27 -100 -6 -200 -18 -200 -23 0 -4 73 -7 163 -6 154 0 164 -1 205 -24 23
-14 42 -27 42 -30 0 -3 11 -19 24 -34 17 -20 26 -47 32 -90 10 -83 7 -265 -5
-352 -6 -38 -11 -90 -11 -114 0 -40 2 -43 23 -38 12 4 41 9 65 13 37 6 42 10
43 33 0 14 11 157 25 316 13 160 27 329 30 378 l5 87 -186 0 -185 0 15 -36z"/>
<path d="M8758 7638 c-1 -24 -1 -54 -1 -68 10 -192 11 -285 4 -290 -5 -3 -10
-43 -11 -90 -3 -146 -3 -150 23 -150 18 0 25 10 40 58 9 31 17 63 17 70 0 6 5
12 11 12 6 0 9 -7 5 -15 -3 -8 -2 -15 3 -15 4 0 13 53 20 118 18 173 32 245
50 259 23 18 62 16 77 -4 12 -17 14 -17 26 -1 19 24 121 35 473 53 614 29 745
38 745 50 0 8 -17 11 -48 9 -27 -1 -55 2 -63 7 -9 6 9 9 51 10 l65 2 -90 12
c-66 10 -267 14 -742 14 l-653 1 -2 -42z"/>
<path d="M7578 7523 c7 -3 16 -2 19 1 4 3 -2 6 -13 5 -11 0 -14 -3 -6 -6z"/>
<path d="M48 7193 c7 -3 16 -2 19 1 4 3 -2 6 -13 5 -11 0 -14 -3 -6 -6z"/>
<path d="M8830 7111 c0 -6 5 -13 10 -16 6 -3 10 1 10 9 0 9 -4 16 -10 16 -5 0
-10 -4 -10 -9z"/>
<path d="M6203 6717 c-36 -37 -42 -50 -48 -102 -3 -33 -17 -121 -30 -195 -13
-74 -31 -173 -39 -220 -8 -47 -24 -139 -36 -205 -25 -142 -22 -165 21 -165 33
0 63 -13 89 -39 19 -19 49 -81 52 -108 5 -41 13 471 9 590 -3 104 -6 127 -18
127 -11 0 -14 6 -9 23 3 12 6 31 6 42 0 16 2 17 10 5 6 -9 8 13 5 65 -1 44 1
88 6 97 5 9 10 34 12 55 1 21 6 44 11 51 18 30 -3 19 -41 -21z m17 -67 c0 -5
-8 -10 -17 -10 -15 0 -16 2 -3 10 19 12 20 12 20 0z m-17 -740 c5 -135 3 -160
-7 -138 -6 15 -21 34 -31 43 -20 14 -20 14 0 15 l20 1 -20 9 c-11 5 -15 9 -8
9 14 1 20 30 28 144 4 49 8 87 10 85 1 -2 5 -77 8 -168z"/>
<path d="M3767 6720 c5 -19 8 -65 8 -102 0 -77 14 -93 17 -20 4 85 -1 125 -17
141 -14 14 -15 13 -8 -19z"/>
<path d="M1169 6625 c-48 -26 -60 -49 -62 -115 -1 -58 1 -64 30 -90 29 -26 37
-28 86 -23 52 5 54 5 61 -21 3 -15 2 -34 -3 -44 -5 -9 -12 -48 -15 -87 -6 -60
-4 -76 15 -115 12 -25 24 -47 28 -50 3 -3 11 -14 17 -25 6 -10 32 -28 57 -38
45 -19 49 -19 92 -2 36 13 45 21 45 41 0 17 6 24 19 24 25 0 32 41 21 121 -17
113 -14 130 30 183 52 63 59 89 31 126 -11 16 -21 36 -21 44 0 8 -13 24 -29
35 -25 18 -45 21 -138 22 -96 0 -154 6 -218 22 -11 3 -32 -1 -46 -8z"/>
<path d="M5068 6513 c7 -3 16 -2 19 1 4 3 -2 6 -13 5 -11 0 -14 -3 -6 -6z"/>
<path d="M5159 6494 c35 -8 66 -12 68 -10 5 5 -92 26 -115 25 -9 -1 12 -7 47
-15z"/>
<path d="M4520 6450 c0 -5 5 -10 10 -10 6 0 10 5 10 10 0 6 -4 10 -10 10 -5 0
-10 -4 -10 -10z"/>
<path d="M4420 6310 c0 -5 5 -10 10 -10 6 0 10 5 10 10 0 6 -4 10 -10 10 -5 0
-10 -4 -10 -10z"/>
<path d="M5781 6188 c112 -112 145 -162 117 -179 -6 -4 0 -13 13 -23 22 -15
22 -16 5 -29 -16 -12 -16 -14 -2 -26 12 -11 14 -17 5 -27 -9 -11 -8 -14 5 -14
17 0 22 -15 7 -24 -5 -4 -11 0 -14 6 -2 7 -2 -9 0 -37 3 -27 11 -63 19 -79 13
-26 12 -28 -6 -23 -24 6 -25 3 -3 -18 9 -10 12 -20 7 -23 -11 -8 -10 -74 0
-91 4 -6 2 -19 -3 -29 -7 -13 -6 -23 2 -31 8 -8 9 -14 1 -19 -5 -4 -11 -16
-11 -27 -2 -27 -7 -48 -17 -63 -4 -7 -6 -16 -3 -19 10 -10 27 8 28 30 0 18 2
16 11 -8 5 -16 14 -40 20 -52 6 -12 8 -40 5 -62 -7 -54 18 -56 40 -4 13 33 14
45 2 98 -12 48 -19 61 -35 63 -23 3 -23 3 4 102 38 139 55 231 44 242 -7 7
-12 18 -12 26 0 8 -17 30 -37 48 -25 22 -31 32 -18 27 16 -5 18 -4 8 8 -7 7
-13 22 -13 34 1 13 8 5 23 -25 14 -29 23 -39 25 -28 9 44 -90 183 -207 288
-129 117 -133 111 -10 -12z m159 -188 c0 -5 -2 -10 -4 -10 -3 0 -8 5 -11 10
-3 6 -1 10 4 10 6 0 11 -4 11 -10z"/>
<path d="M5093 6073 c-7 -2 -13 -14 -13 -26 0 -11 -7 -28 -16 -38 -8 -9 -16
-26 -17 -38 -1 -21 -37 -32 -37 -11 0 6 6 10 14 10 8 0 17 11 20 25 4 14 11
25 16 25 6 0 10 5 10 11 0 6 -7 8 -16 5 -9 -4 -23 -1 -31 5 -19 16 -27 5 -13
-20 7 -13 7 -21 1 -21 -6 0 -15 9 -21 21 -11 20 -11 20 -31 -5 -20 -26 -25
-56 -9 -56 14 0 50 -37 43 -44 -3 -3 7 -2 23 3 16 4 35 6 43 3 8 -3 11 0 7 7
-5 8 0 8 18 -1 30 -13 33 -23 10 -32 -10 -4 -13 -13 -9 -25 4 -14 -3 -24 -29
-40 -28 -18 -43 -41 -50 -81 -1 -3 -5 -11 -10 -18 -11 -18 13 -47 28 -32 5 5
17 10 25 10 12 0 11 -3 -2 -18 -23 -25 -21 -32 8 -32 18 0 25 -5 25 -20 0 -13
-7 -20 -20 -20 -11 0 -20 5 -20 10 0 6 -5 10 -12 10 -6 0 1 -13 17 -30 32 -33
119 -79 179 -93 50 -12 206 -16 206 -5 0 4 -8 8 -18 8 -10 0 -22 3 -26 7 -4 4
-24 8 -45 9 -21 1 -49 9 -62 17 -13 8 -36 17 -51 21 -19 4 -26 12 -25 26 1 11
7 20 14 20 7 0 13 4 13 9 0 6 16 7 35 4 24 -4 35 -2 35 6 0 7 -4 10 -9 7 -5
-4 -20 -2 -33 3 -20 8 -16 10 30 16 43 6 55 12 62 31 6 16 15 22 25 18 18 -7
20 -21 3 -27 -7 -2 14 -7 47 -11 33 -4 89 -16 125 -26 67 -20 180 -37 180 -27
0 3 -33 10 -72 17 -69 11 -137 34 -148 50 -11 16 -166 66 -240 77 -29 5 -32 7
-15 14 l20 8 -20 0 c-14 1 -16 4 -7 9 16 11 133 -3 193 -23 25 -9 67 -29 93
-45 26 -17 51 -30 57 -30 15 0 -39 44 -78 64 -39 20 -186 56 -230 56 -61 0
-133 22 -133 41 0 16 15 22 128 45 13 2 21 8 18 12 -2 4 26 5 63 2 72 -5 100
5 72 27 -13 10 -13 14 -3 21 10 7 10 11 -2 21 -10 8 -16 9 -21 1 -3 -5 -12
-10 -18 -10 -7 0 -6 4 3 10 13 8 13 10 -1 10 -9 0 -20 7 -23 16 -4 10 -13 13
-28 9 -18 -5 -20 -4 -8 4 13 10 13 11 0 11 -8 0 -26 3 -40 6 -20 4 -22 3 -10
-5 13 -9 13 -11 -2 -11 -10 0 -18 5 -18 11 0 5 -8 9 -17 8 -36 -3 -49 2 -28
11 16 7 14 9 -15 9 -23 1 -30 -2 -22 -8 10 -6 7 -10 -12 -15 -14 -3 -35 -16
-46 -28 -11 -12 -23 -18 -27 -15 -3 4 -1 7 5 7 8 0 9 7 2 25 -7 20 -6 25 5 25
8 0 15 5 15 10 0 11 -7 12 -27 3z m197 -103 c0 -5 -2 -10 -4 -10 -3 0 -8 5
-11 10 -3 6 -1 10 4 10 6 0 11 -4 11 -10z m88 -6 c29 -2 33 -5 27 -14 -3 -5
-11 -10 -16 -10 -6 0 -7 5 -4 11 4 6 1 10 -6 8 -8 -1 -25 -1 -39 1 -23 1 -23
2 -5 9 11 5 22 6 25 2 3 -3 11 -6 18 -7z m-248 -104 c0 -17 -2 -19 -14 -8 -10
9 -11 15 -2 20 16 11 16 10 16 -12z m74 -156 c3 -9 6 -18 6 -20 0 -8 -25 -4
-40 6 -13 9 -13 11 0 20 21 13 27 12 34 -6z"/>
<path d="M5122 6058 c-19 -19 -14 -30 8 -18 11 6 20 15 20 20 0 14 -14 12 -28
-2z"/>
<path d="M5410 6066 c0 -2 7 -6 15 -10 8 -3 15 -1 15 4 0 6 -7 10 -15 10 -8 0
-15 -2 -15 -4z"/>
<path d="M5348 6053 c7 -3 16 -2 19 1 4 3 -2 6 -13 5 -11 0 -14 -3 -6 -6z"/>
<path d="M8675 6013 c-10 -24 -13 -53 -6 -53 4 0 12 9 19 20 7 11 8 20 2 20
-5 0 -7 7 -4 15 8 21 -2 19 -11 -2z"/>
<path d="M5430 6016 c0 -2 15 -6 34 -8 19 -2 32 0 30 4 -5 8 -64 12 -64 4z"/>
<path d="M5610 5996 c0 -2 7 -7 16 -10 8 -3 12 -2 9 4 -6 10 -25 14 -25 6z"/>
<path d="M5480 5953 c8 -3 23 -10 34 -15 14 -8 17 -7 11 3 -6 9 -3 11 8 6 10
-3 17 -2 17 3 0 6 -19 10 -42 9 -24 0 -36 -3 -28 -6z"/>
<path d="M5580 5930 c20 -13 33 -13 25 0 -3 6 -14 10 -23 10 -15 0 -15 -2 -2
-10z"/>
<path d="M5463 5913 c9 -2 23 -2 30 0 6 3 -1 5 -18 5 -16 0 -22 -2 -12 -5z"/>
<path d="M5560 5910 c8 -5 22 -9 30 -9 10 0 8 3 -5 9 -27 12 -43 12 -25 0z"/>
<path d="M5520 5886 c0 -2 6 -9 14 -15 10 -9 15 -8 20 4 4 10 -1 15 -14 15
-11 0 -20 -2 -20 -4z"/>
<path d="M6094 5723 c-24 -17 -33 -49 -24 -89 4 -21 11 -78 15 -126 4 -49 10
-90 15 -93 8 -5 27 71 49 190 13 71 3 119 -25 123 -10 1 -24 -1 -30 -5z"/>
<path d="M8066 5676 c-3 -13 -6 -64 -5 -113 0 -48 -7 -171 -15 -273 -9 -102
-16 -225 -17 -275 -1 -106 -11 -188 -29 -231 -12 -27 -11 -37 5 -70 10 -22 21
-63 23 -91 5 -62 -9 -90 -63 -123 -32 -20 -35 -24 -22 -37 11 -11 13 -23 7
-45 -8 -27 -7 -28 13 -22 12 3 19 3 15 -1 -3 -4 -1 -21 4 -38 10 -27 12 -29
19 -11 6 14 8 9 8 -20 1 -40 16 -99 33 -126 5 -8 14 -27 20 -41 6 -15 19 -31
29 -37 15 -10 19 -7 28 21 10 32 28 299 37 557 2 74 9 160 16 190 10 50 14
474 6 620 -2 30 1 76 5 102 7 41 5 49 -14 67 -15 14 -36 21 -60 21 -31 0 -38
-4 -43 -24z"/>
<path d="M5460 5553 c-24 -14 -24 -14 15 -7 22 4 56 7 75 6 28 -1 31 1 15 8
-30 13 -77 10 -105 -7z"/>
<path d="M6186 5503 c-10 -38 -24 -90 -31 -118 -7 -27 -33 -104 -58 -170 -25
-66 -51 -152 -58 -190 -10 -60 -17 -75 -48 -104 -20 -20 -28 -32 -17 -28 23 9
46 -9 46 -35 0 -11 10 -34 22 -51 26 -36 39 -167 17 -167 -6 0 -17 -7 -23 -15
-15 -20 -130 -30 -183 -16 -27 7 -44 19 -48 31 -4 11 -11 20 -16 20 -5 0 -8
-3 -7 -7 3 -8 -72 -164 -82 -173 -10 -8 -40 -54 -40 -61 0 -4 30 -21 68 -39
88 -41 207 -115 254 -158 61 -57 253 -146 353 -166 l30 -6 -30 16 c-43 22 -68
59 -56 82 14 27 3 37 -69 61 -36 12 -70 25 -75 29 -27 19 -55 68 -55 95 0 46
37 115 63 119 19 3 22 9 23 58 1 30 -1 40 -3 23 -4 -35 -26 -44 -37 -17 -3 9
-6 40 -6 70 0 30 -4 54 -10 54 -5 0 -10 18 -10 40 0 27 4 40 14 40 9 0 15 24
19 91 9 118 26 151 28 54 l2 -70 7 55 c12 84 19 156 25 255 7 116 16 465 12
465 -2 0 -12 -30 -21 -67z"/>
<path d="M3216 5265 c4 -8 10 -15 14 -15 4 0 10 7 14 15 4 10 -1 15 -14 15
-13 0 -18 -5 -14 -15z"/>
<path d="M5450 4990 c0 -5 5 -10 10 -10 6 0 10 5 10 10 0 6 -4 10 -10 10 -5 0
-10 -4 -10 -10z"/>
<path d="M4943 4968 c-11 -19 -12 -38 -2 -38 5 0 9 7 9 15 0 13 4 14 20 5 23
-12 26 -5 6 16 -18 17 -23 17 -33 2z"/>
<path d="M5870 4904 c0 -8 5 -12 10 -9 6 3 10 10 10 16 0 5 -4 9 -10 9 -5 0
-10 -7 -10 -16z"/>
<path d="M5250 4876 c0 -2 7 -7 16 -10 8 -3 12 -2 9 4 -6 10 -25 14 -25 6z"/>
<path d="M5811 4694 c0 -11 3 -14 6 -6 3 7 2 16 -1 19 -3 4 -6 -2 -5 -13z"/>
<path d="M5345 4670 c-3 -5 -1 -10 4 -10 6 0 11 5 11 10 0 6 -2 10 -4 10 -3 0
-8 -4 -11 -10z"/>
<path d="M4906 4644 c-5 -12 -2 -15 10 -10 8 3 18 6 20 6 3 0 2 5 -1 10 -9 15
-22 12 -29 -6z"/>
<path d="M9444 4412 l-32 -3 -7 -80 c-3 -45 -4 -84 0 -87 3 -4 85 -8 181 -10
172 -4 174 -4 174 17 0 18 6 21 44 21 26 0 48 -6 56 -15 7 -8 18 -15 25 -15 7
0 16 -8 19 -17 6 -15 8 -15 17 -3 6 11 11 12 17 3 4 -6 54 -16 112 -22 58 -6
124 -13 148 -16 39 -4 42 -3 42 19 0 25 -17 36 -56 36 -19 0 -24 5 -24 25 0
23 4 25 40 25 39 0 40 1 40 33 l0 34 -82 11 c-46 7 -130 14 -188 17 -58 3
-125 7 -150 9 -49 5 -253 18 -310 20 -19 1 -49 0 -66 -2z m423 -58 c-3 -3 -12
-4 -19 -1 -8 3 -5 6 6 6 11 1 17 -2 13 -5z m-30 -30 c-3 -3 -12 -4 -19 -1 -8
3 -5 6 6 6 11 1 17 -2 13 -5z m348 -104 c-3 -5 -10 -10 -16 -10 -5 0 -9 5 -9
10 0 6 7 10 16 10 8 0 12 -4 9 -10z"/>
<path d="M4840 4400 c0 -5 10 -10 23 -10 18 0 19 2 7 10 -19 13 -30 13 -30 0z"/>
<path d="M4560 4290 c0 -5 5 -10 10 -10 6 0 10 5 10 10 0 6 -4 10 -10 10 -5 0
-10 -4 -10 -10z"/>
<path d="M5490 4275 c0 -8 5 -15 10 -15 6 0 10 7 10 15 0 8 -4 15 -10 15 -5 0
-10 -7 -10 -15z"/>
<path d="M5375 4227 c-4 -10 -5 -21 -1 -24 10 -10 18 4 13 24 -4 17 -4 17 -12
0z"/>
<path d="M5410 4228 c0 -4 7 -8 15 -8 8 0 15 4 15 8 0 5 -7 9 -15 9 -8 0 -15
-4 -15 -9z"/>
<path d="M9788 4233 c7 -3 16 -2 19 1 4 3 -2 6 -13 5 -11 0 -14 -3 -6 -6z"/>
<path d="M5271 4154 c0 -11 3 -14 6 -6 3 7 2 16 -1 19 -3 4 -6 -2 -5 -13z"/>
<path d="M5197 4119 c4 -13 8 -18 11 -10 2 7 -1 18 -6 23 -8 8 -9 4 -5 -13z"/>
<path d="M5170 4113 c0 -12 5 -25 10 -28 13 -8 13 15 0 35 -8 12 -10 11 -10
-7z"/>
<path d="M5607 4075 c-19 -97 -69 -202 -129 -269 -22 -25 -34 -46 -27 -46 22
0 101 91 125 145 26 56 47 153 42 188 -3 15 -6 10 -11 -18z"/>
<path d="M5127 4072 c-7 -34 -4 -36 15 -15 13 15 14 20 3 30 -10 9 -14 6 -18
-15z"/>
<path d="M6804 4072 c6 -11 -36 -32 -67 -33 -21 0 -21 -1 -2 -9 44 -18 62 -23
98 -25 20 -1 40 2 43 6 3 5 15 10 27 10 20 1 20 2 3 6 -11 3 -25 10 -32 17
-28 24 -40 31 -58 34 -10 2 -15 -1 -12 -6z"/>
<path d="M5086 4043 c-4 -9 -2 -21 4 -27 7 -7 10 -7 10 1 0 6 3 18 6 27 3 9 2
16 -4 16 -5 0 -13 -8 -16 -17z"/>
<path d="M5008 4028 c-5 -30 1 -58 13 -58 5 0 7 16 4 36 -5 45 -11 52 -17 22z"/>
<path d="M4971 4028 c1 -23 15 -52 21 -42 3 5 2 19 -3 32 -9 24 -19 30 -18 10z"/>
<path d="M5045 4029 c-4 -6 -3 -15 3 -21 6 -6 11 -4 15 6 7 18 -9 31 -18 15z"/>
<path d="M8088 3993 c-22 -6 -12 -33 12 -33 18 0 34 23 23 34 -7 6 -8 6 -35
-1z"/>
<path d="M4848 3942 c-34 -7 -18 -22 22 -19 22 1 40 7 40 13 0 11 -28 14 -62
6z"/>
<path d="M5010 3910 c0 -5 5 -10 10 -10 6 0 10 5 10 10 0 6 -4 10 -10 10 -5 0
-10 -4 -10 -10z"/>
<path d="M8518 3866 c24 -13 20 -26 -10 -26 -16 0 -18 -10 -19 -82 -1 -46 0
-96 1 -113 1 -16 -2 -27 -6 -22 -9 8 -53 -101 -61 -149 -7 -42 15 -141 32
-148 7 -2 15 -15 17 -28 3 -22 8 -23 100 -29 111 -6 143 -19 50 -19 -44 0 -62
-4 -62 -13 0 -9 -23 -14 -82 -16 -214 -9 -352 -4 -739 23 -26 2 -52 7 -58 10
-21 13 -11 -16 38 -118 27 -55 59 -137 71 -181 12 -44 47 -163 77 -265 31
-102 60 -205 65 -230 5 -25 23 -90 38 -145 25 -85 51 -188 109 -420 6 -22 24
-96 40 -165 32 -133 97 -359 106 -368 3 -3 5 2 5 11 0 27 59 74 118 93 28 10
52 22 52 26 0 4 5 8 12 8 21 0 134 49 251 109 64 33 124 65 134 70 146 74 459
221 493 231 65 18 98 45 110 91 9 32 20 44 62 68 68 39 153 52 317 49 83 -2
136 1 138 7 35 106 119 147 263 130 l60 -7 0 385 0 385 -95 7 c-52 4 -98 12
-101 17 -3 5 -27 6 -52 3 -29 -4 -42 -3 -34 2 8 6 -28 14 -100 22 -133 15
-284 35 -423 56 -55 8 -106 14 -112 15 -7 0 -13 7 -13 15 0 10 -10 15 -29 15
-53 0 -42 17 14 23 51 5 96 16 153 39 13 4 26 17 29 26 7 27 77 69 136 82 29
6 58 13 65 16 12 3 -33 51 -163 172 -31 28 -60 52 -65 52 -4 0 -11 17 -14 38
-3 20 -8 52 -11 71 -8 48 -23 71 -45 71 -11 0 -20 5 -20 10 0 6 -12 10 -27 10
-16 0 -35 5 -43 10 -12 8 -10 10 8 10 13 0 21 4 18 9 -7 11 -79 19 -301 31
-104 5 -237 14 -295 20 -216 20 -227 20 -202 6z m430 -641 c12 0 22 -6 22 -13
0 -8 -5 -10 -12 -6 -7 5 -81 7 -165 5 -98 -1 -153 1 -153 8 0 14 69 19 185 12
55 -3 110 -5 123 -6z m-121 -31 c-3 -3 -12 -4 -19 -1 -8 3 -5 6 6 6 11 1 17
-2 13 -5z m-17 -675 c0 -11 -3 -18 -7 -16 -5 2 -16 7 -26 10 -22 8 -13 27 14
27 13 0 19 -7 19 -21z m-385 -819 c9 -14 -7 -39 -54 -85 -22 -22 -41 -48 -41
-57 0 -10 -6 -18 -13 -18 -7 0 -32 -16 -55 -35 -37 -33 -42 -34 -51 -18 -5 10
-12 36 -15 58 -3 22 -3 34 0 27 8 -17 24 -5 24 18 0 30 133 112 192 119 4 1
10 -3 13 -9z"/>
<path d="M4726 3623 c-11 -11 -6 -23 9 -23 8 0 15 4 15 9 0 13 -16 22 -24 14z"/>
<path d="M4953 3518 c-34 -52 -44 -63 -63 -71 -8 -3 0 -6 18 -6 20 -1 32 4 32
12 0 7 13 34 30 60 16 26 25 47 20 47 -5 0 -22 -19 -37 -42z"/>
<path d="M4590 3483 c0 -17 6 -23 23 -23 16 0 18 3 8 9 -7 5 -17 15 -22 22 -6
10 -9 8 -9 -8z"/>
<path d="M4698 3453 c7 -3 16 -2 19 1 4 3 -2 6 -13 5 -11 0 -14 -3 -6 -6z"/>
<path d="M4753 3453 c9 -2 25 -2 35 0 9 3 1 5 -18 5 -19 0 -27 -2 -17 -5z"/>
<path d="M9977 3433 c-13 -12 -7 -23 12 -23 10 0 21 7 25 15 5 15 -24 22 -37
8z"/>
<path d="M720 3010 c0 -5 7 -10 15 -10 8 0 15 5 15 10 0 6 -7 10 -15 10 -8 0
-15 -4 -15 -10z"/>
<path d="M9855 1910 c-12 -19 5 -48 31 -53 29 -5 64 1 64 12 0 30 -80 65 -95
41z"/>
<path d="M9441 1628 c-10 -27 18 -92 47 -106 40 -21 287 -33 315 -15 14 9 -29
20 -85 22 -21 0 -38 5 -38 10 0 5 -10 13 -22 16 -33 10 -130 56 -148 70 -8 7
-25 16 -38 20 -17 5 -24 2 -31 -17z"/>
<path d="M10123 1508 c-5 -7 -10 -24 -11 -37 0 -13 -8 -31 -16 -40 -8 -9 -16
-32 -18 -51 l-3 -35 44 -1 c24 -1 48 -8 53 -15 5 -8 6 -58 3 -116 -5 -84 -11
-111 -32 -149 -36 -65 -29 -109 32 -179 26 -30 51 -55 56 -55 5 0 9 104 9 249
l0 249 -25 16 c-39 25 -58 72 -53 128 4 41 2 48 -12 48 -10 0 -22 -6 -27 -12z"/>
<path d="M2310 1383 c0 -147 -51 -503 -71 -503 -5 0 -9 -9 -9 -19 0 -11 -6
-26 -13 -33 -7 -7 -19 -33 -26 -57 -8 -26 -20 -45 -31 -48 -11 -3 -21 -18 -24
-36 -6 -33 -37 -68 -68 -80 -22 -8 -24 -27 -3 -27 24 0 17 -20 -7 -21 -17 -1
-19 -2 -5 -6 9 -2 17 -13 17 -24 0 -19 1 -19 24 -2 47 36 117 142 132 201 13
54 24 83 66 179 10 23 18 51 18 61 0 11 7 39 15 62 8 23 15 58 15 76 0 23 5
34 14 34 8 0 20 17 27 38 6 20 15 42 20 47 15 20 89 170 89 182 0 21 -21 26
-60 13 -32 -11 -43 -10 -70 4 -18 9 -37 16 -42 16 -4 0 -8 -26 -8 -57z"/>
<path d="M6822 983 c-35 -35 -78 -157 -68 -197 4 -15 11 -24 17 -20 6 3 8 17
5 29 -3 13 -2 27 4 30 5 3 10 18 10 33 0 31 33 108 57 134 25 28 6 21 -25 -9z"/>
<path d="M9995 681 c7 -22 -3 -27 -71 -36 -69 -10 -81 -19 -86 -62 -6 -47 18
-133 36 -133 8 0 16 -7 20 -15 3 -8 9 -14 13 -13 15 3 68 -15 75 -26 15 -21 8
-77 -11 -98 -19 -20 -19 -21 2 -54 12 -19 26 -34 32 -34 5 0 2 7 -7 16 -15 15
-14 19 4 50 26 44 77 97 108 112 42 20 100 20 100 -1 0 -7 7 -22 15 -33 13
-17 14 -1 15 148 l0 168 -42 -6 c-30 -4 -62 0 -105 15 -80 27 -106 28 -98 2z
m172 -47 c-3 -3 -12 -4 -19 -1 -8 3 -5 6 6 6 11 1 17 -2 13 -5z m-150 -304
c-1 -12 -5 -16 -10 -11 -5 5 -6 14 -3 20 11 16 15 13 13 -9z"/>
<path d="M6770 624 c0 -27 5 -56 10 -64 6 -9 7 6 3 45 -7 75 -13 84 -13 19z"/>
<path d="M9120 644 c-192 -21 -244 -38 -288 -93 l-31 -38 37 -35 c55 -52 91
-74 151 -92 73 -21 89 -20 102 8 8 18 7 30 -4 52 -28 55 22 112 85 99 42 -9
88 -36 88 -51 0 -53 78 -105 116 -77 14 10 49 13 136 11 l118 -3 25 30 c13 17
24 37 25 45 0 9 5 21 10 26 6 6 11 35 13 64 l2 54 -40 8 c-61 11 -416 6 -545
-8z"/>
<path d="M1952 577 c-16 -19 -27 -71 -13 -63 6 4 11 16 11 27 0 10 7 19 15 19
16 0 20 16 6 24 -5 3 -13 0 -19 -7z"/>
<path d="M2002 554 c1 -9 9 -19 16 -22 9 -3 13 2 10 14 -1 9 -9 19 -16 22 -9
3 -13 -2 -10 -14z"/>
<path d="M8770 462 c0 -5 7 -15 15 -22 8 -7 15 -8 15 -2 0 5 -7 15 -15 22 -8
7 -15 8 -15 2z"/>
<path d="M8815 404 c4 -11 11 -42 15 -71 5 -28 11 -57 15 -63 4 -7 7 -31 7
-53 -1 -30 11 -68 41 -129 l41 -88 653 0 653 0 0 79 0 79 -65 4 c-42 2 -71 -2
-82 -10 -16 -11 -19 -10 -23 10 -4 14 -15 24 -29 26 -21 3 -23 0 -19 -22 7
-34 -7 -33 -47 2 -26 23 -42 29 -90 31 -55 2 -57 1 -52 -19 5 -21 5 -21 -15
-3 -15 13 -22 15 -25 6 -7 -19 -23 -16 -23 3 0 12 -5 11 -20 -7 -15 -18 -18
-20 -14 -5 7 20 -10 36 -38 36 -10 0 -18 -8 -18 -17 -1 -17 -1 -17 -11 0 -8
14 -14 15 -24 7 -8 -6 -11 -19 -8 -28 4 -15 3 -15 -6 -2 -6 8 -18 15 -28 15
-11 0 -19 9 -21 21 -2 17 -10 21 -45 20 -35 -1 -42 -5 -49 -26 -6 -23 -7 -23
-5 5 l2 30 -90 17 c-49 9 -107 17 -128 17 -85 2 -300 66 -396 119 -52 28 -63
31 -56 16z m605 -184 c0 -5 -6 -10 -14 -10 -8 0 -18 5 -21 10 -3 6 3 10 14 10
12 0 21 -4 21 -10z m140 -40 c0 -11 -2 -20 -4 -20 -2 0 -6 9 -9 20 -3 11 -1
20 4 20 5 0 9 -9 9 -20z m387 -24 c-10 -26 -25 -18 -19 10 3 17 8 22 15 15 5
-5 7 -17 4 -25z"/>
<path d="M1860 395 c0 -8 3 -15 6 -15 3 0 12 7 20 15 14 13 13 15 -5 15 -12 0
-21 -6 -21 -15z"/>
<path d="M1825 331 c-3 -5 -1 -12 5 -16 5 -3 10 1 10 9 0 18 -6 21 -15 7z"/>
<path d="M1781 311 c-34 -9 -39 -30 -6 -23 23 4 42 19 34 26 -2 2 -15 0 -28
-3z"/>
<path d="M10051 266 c-7 -8 -8 -17 -3 -20 6 -3 12 3 15 14 6 24 4 25 -12 6z"/>
<path d="M10027 227 c-5 -12 -1 -17 13 -17 11 0 20 5 20 11 0 5 -4 8 -9 5 -5
-4 -11 -1 -13 6 -3 8 -7 6 -11 -5z"/>
<path d="M9600 210 c0 -5 9 -10 21 -10 11 0 17 5 14 10 -3 6 -13 10 -21 10 -8
0 -14 -4 -14 -10z"/>
<path d="M10218 213 c7 -3 16 -2 19 1 4 3 -2 6 -13 5 -11 0 -14 -3 -6 -6z"/>
<path d="M7002 127 c-10 -13 -62 -116 -62 -123 0 -2 53 -4 118 -4 l117 1 -31
27 c-109 95 -132 111 -142 99z"/>
<path d="M7911 71 c-7 -5 -9 -11 -5 -14 10 -5 54 9 54 18 0 8 -34 6 -49 -4z"/>
<path d="M7840 46 c-14 -8 -52 -20 -85 -27 l-60 -14 44 -3 c25 -2 57 3 76 12
18 9 37 16 43 16 5 0 15 7 22 15 16 20 -4 20 -40 1z"/>
<path d="M7838 3 c7 -3 16 -2 19 1 4 3 -2 6 -13 5 -11 0 -14 -3 -6 -6z"/>
</g>
</svg>
